<svg width="610" height="85" viewBox="0 0 610 90" fill="none" xmlns="http://www.w3.org/2000/svg">
<rect width="610" height="86" rx="12" fill="#FEE500"/>
<g clip-path="url(#clip0_35_180)">
<path fill-rule="evenodd" clip-rule="evenodd" d="M46 28.2002C36.0583 28.2002 28 34.4261 28 42.1048C28 46.8802 31.1168 51.0901 35.863 53.5941L33.8661 60.8892C33.6896 61.5338 34.4268 62.0476 34.9929 61.674L43.7467 55.8966C44.4854 55.9679 45.2362 56.0095 46 56.0095C55.9409 56.0095 63.9999 49.7838 63.9999 42.1048C63.9999 34.4261 55.9409 28.2002 46 28.2002Z" fill="black"/>
</g>
<path d="M247.7 33.06H251.6C251.6 41.64 249.56 48.78 239.21 54.03L237.08 51C245.72 46.65 247.7 41.34 247.7 33.54V33.06ZM238.79 33.06H250.07V36.21H238.79V33.06ZM247.79 39.87V42.93L237.83 43.89L237.35 40.47L247.79 39.87ZM254.96 30.36H258.98V58.14H254.96V30.36ZM257.93 40.98H262.82V44.25H257.93V40.98ZM275.297 33.06H279.197C279.197 41.64 277.157 48.78 266.807 54.03L264.677 51C273.317 46.65 275.297 41.34 275.297 33.54V33.06ZM266.387 33.06H277.667V36.21H266.387V33.06ZM275.387 39.87V42.93L265.427 43.89L264.947 40.47L275.387 39.87ZM282.557 30.36H286.577V58.14H282.557V30.36ZM285.527 40.98H290.417V44.25H285.527V40.98ZM302.955 46.02H306.945V52.35H302.955V46.02ZM304.965 31.8C310.905 31.8 315.345 34.83 315.345 39.45C315.345 44.13 310.905 47.13 304.965 47.13C299.025 47.13 294.585 44.13 294.585 39.45C294.585 34.83 299.025 31.8 304.965 31.8ZM304.965 34.95C301.155 34.95 298.515 36.63 298.515 39.45C298.515 42.33 301.155 43.98 304.965 43.98C308.775 43.98 311.415 42.33 311.415 39.45C311.415 36.63 308.775 34.95 304.965 34.95ZM292.425 51.72H317.565V54.96H292.425V51.72ZM327.464 51.87H352.604V55.11H327.464V51.87ZM337.994 46.62H341.984V53.19H337.994V46.62ZM330.284 32.19H349.784V41.43H334.304V46.11H330.344V38.31H345.824V35.34H330.284V32.19ZM330.344 44.52H350.414V47.73H330.344V44.52ZM357.612 32.94H375.222V36.09H357.612V32.94ZM355.062 51.3H380.172V54.54H355.062V51.3ZM373.122 32.94H377.082V36.24C377.082 40.14 377.082 43.92 376.092 49.62L372.102 49.29C373.122 43.95 373.122 39.99 373.122 36.24V32.94ZM401.709 30.42H405.729V50.37H401.709V30.42ZM387.219 54.51H406.419V57.69H387.219V54.51ZM387.219 48.36H391.209V55.8H387.219V48.36ZM390.609 32.16C394.869 32.16 398.139 35.1 398.139 39.21C398.139 43.29 394.869 46.26 390.609 46.26C386.349 46.26 383.049 43.29 383.049 39.21C383.049 35.1 386.349 32.16 390.609 32.16ZM390.609 35.61C388.539 35.61 386.949 36.93 386.949 39.21C386.949 41.46 388.539 42.78 390.609 42.78C392.649 42.78 394.239 41.46 394.239 39.21C394.239 36.93 392.649 35.61 390.609 35.61Z" fill="black" fill-opacity="0.8"/>
<defs>
<clipPath id="clip0_35_180">
<rect width="35.9999" height="36" fill="white" transform="translate(28 27)"/>
</clipPath>
</defs>
</svg>
